<svg width="31" height="30" viewBox="0 0 31 30" fill="none" xmlns="http://www.w3.org/2000/svg">
<g clip-path="url(#clip0_64_11709)">
<path d="M15.5 5.625C9.25 5.625 3.9125 9.5125 1.75 15C3.9125 20.4875 9.25 24.375 15.5 24.375C21.75 24.375 27.0875 20.4875 29.25 15C27.0875 9.5125 21.75 5.625 15.5 5.625ZM15.5 21.25C12.05 21.25 9.25 18.45 9.25 15C9.25 11.55 12.05 8.75 15.5 8.75C18.95 8.75 21.75 11.55 21.75 15C21.75 18.45 18.95 21.25 15.5 21.25ZM15.5 11.25C13.425 11.25 11.75 12.925 11.75 15C11.75 17.075 13.425 18.75 15.5 18.75C17.575 18.75 19.25 17.075 19.25 15C19.25 12.925 17.575 11.25 15.5 11.25Z" fill="#57BF9C"/>
<mask id="path-2-inside-1_64_11709" fill="white">
<path d="M21.125 20.625H30.5V30H21.125V20.625Z"/>
</mask>
<path d="M30.5 30V32H32.5V30H30.5ZM28.5 20.625V30H32.5V20.625H28.5ZM30.5 28H21.125V32H30.5V28Z" fill="#57BF9C" mask="url(#path-2-inside-1_64_11709)"/>
<mask id="path-4-inside-2_64_11709" fill="white">
<path d="M21.125 9.375V4.61937e-07L30.5 4.61937e-07V9.375L21.125 9.375Z"/>
</mask>
<path d="M30.5 4.61937e-07H32.5V-2H30.5V4.61937e-07ZM21.125 2L30.5 2V-2L21.125 -2V2ZM28.5 4.61937e-07V9.375H32.5V4.61937e-07H28.5Z" fill="#57BF9C" mask="url(#path-4-inside-2_64_11709)"/>
<mask id="path-6-inside-3_64_11709" fill="white">
<path d="M9.875 9.375L0.499999 9.375L0.499999 -6.55649e-07L9.875 -6.55649e-07L9.875 9.375Z"/>
</mask>
<path d="M0.499999 -6.55649e-07V-2H-1.5V-6.55649e-07H0.499999ZM2.5 9.375L2.5 -6.55649e-07H-1.5L-1.5 9.375H2.5ZM0.499999 2L9.875 2V-2L0.499999 -2V2Z" fill="#57BF9C" mask="url(#path-6-inside-3_64_11709)"/>
<mask id="path-8-inside-4_64_11709" fill="white">
<path d="M11.4375 19.0625L11.4375 30L0.5 30L0.5 19.0625L11.4375 19.0625Z"/>
</mask>
<path d="M0.5 30H-1.5L-1.5 32H0.5L0.5 30ZM11.4375 28L0.5 28L0.5 32L11.4375 32L11.4375 28ZM2.5 30L2.5 19.0625L-1.5 19.0625L-1.5 30H2.5Z" fill="#57BF9C" mask="url(#path-8-inside-4_64_11709)"/>
</g>
<defs>
<clipPath id="clip0_64_11709">
<rect width="30" height="30" fill="white" transform="translate(0.5)"/>
</clipPath>
</defs>
</svg>
