<svg width="30" height="30" viewBox="0 0 30 30" fill="none" xmlns="http://www.w3.org/2000/svg">
<path fill-rule="evenodd" clip-rule="evenodd" d="M4.33203 25.6688L19.014 10.9867L4.33203 25.6688ZM11.1348 11.5394C13.1579 13.0569 13.568 15.9271 12.0506 17.9503C11.8553 18.2106 11.633 18.4491 11.3877 18.6619L11.1348 18.8661C9.11157 17.3487 8.70155 14.4784 10.219 12.4553C10.4142 12.1949 10.6365 11.9564 10.8818 11.7436L11.1348 11.5394ZM14.798 7.87615C16.8212 9.39355 17.2312 12.2638 15.7138 14.2869C15.5186 14.5473 15.2963 14.7858 15.051 14.9986L14.798 15.2028C12.7748 13.6853 12.3648 10.8151 13.8822 8.79195C14.0775 8.53161 14.2997 8.29308 14.5451 8.08026L14.798 7.87615ZM18.4613 4.21284C20.4845 5.73025 20.8945 8.60046 19.3771 10.6236C19.1818 10.884 18.9596 11.1225 18.7142 11.3353L18.4613 11.5394C16.4381 10.022 16.0281 7.15183 17.5455 5.12865C17.7408 4.86831 17.963 4.62978 18.2084 4.41696L18.4613 4.21284ZM25.7878 11.5394C24.2705 13.5626 21.4003 13.9727 19.3771 12.4553C19.1168 12.26 18.8783 12.0378 18.6654 11.7924L18.4613 11.5394C19.9787 9.51628 22.8488 9.10624 24.872 10.6236C25.1323 10.8189 25.3709 11.0411 25.5837 11.2865L25.7878 11.5394ZM22.1246 15.2028C20.6072 17.2259 17.737 17.636 15.7139 16.1186C15.4535 15.9233 15.215 15.7011 15.0021 15.4557L14.798 15.2028C16.3154 13.1796 19.1856 12.7695 21.2087 14.2869C21.4691 14.4822 21.7076 14.7044 21.9205 14.9498L22.1246 15.2028ZM18.4613 18.8661C16.9439 20.8892 14.0738 21.2993 12.0506 19.7819C11.7903 19.5866 11.5517 19.3644 11.3389 19.119L11.1348 18.8661C12.6521 16.8429 15.5223 16.4328 17.5455 17.9502C17.8058 18.1455 18.0443 18.3677 18.2572 18.6131L18.4613 18.8661ZM7.38476 15.2894C9.40794 16.8069 9.81796 19.6771 8.30056 21.7003C8.10531 21.9606 7.88305 22.1991 7.63768 22.4119L7.38476 22.6161C5.36157 21.0987 4.95155 18.2284 6.46895 16.2053C6.66421 15.9449 6.88647 15.7064 7.13183 15.4936L7.38476 15.2894ZM14.7113 22.6161C13.1939 24.6392 10.3238 25.0493 8.3006 23.5319C8.04025 23.3366 7.80171 23.1144 7.58888 22.869L7.38476 22.6161C8.90212 20.5929 11.7723 20.1828 13.7955 21.7002C14.0558 21.8955 14.2943 22.1177 14.5072 22.3631L14.7113 22.6161ZM25.9223 4.07923C26.28 6.58282 24.5404 8.90227 22.0368 9.25992C21.7147 9.30594 21.3889 9.31745 21.0649 9.29444L20.7417 9.25987C20.384 6.75632 22.1236 4.43687 24.6272 4.07922C25.0567 4.01786 25.4928 4.01786 25.9223 4.07923Z" stroke="#57BF9C" stroke-linecap="round"/>
</svg>
