<svg width="31" height="30" viewBox="0 0 31 30" fill="none" xmlns="http://www.w3.org/2000/svg">
<path d="M20.1875 20.0001V16.5001L17.8125 12.1564C17.3958 12.3647 17.0625 12.6668 16.8125 13.0626C16.5625 13.4585 16.4375 13.896 16.4375 14.3751V23.7189C16.4375 23.948 16.4635 24.1616 16.5156 24.3595C16.5677 24.5574 16.6458 24.7501 16.75 24.9376L18.2188 27.5001H28L26.8125 12.6876C26.7917 12.4168 26.7292 12.1616 26.625 11.922C26.5208 11.6824 26.3854 11.4585 26.2188 11.2501L18.9688 2.96888C18.7188 2.67721 18.3958 2.5418 18 2.56263C17.6042 2.58346 17.2708 2.75013 17 3.06263C16.6667 3.62513 16.5 4.2293 16.5 4.87513C16.5 5.52096 16.6562 6.13555 16.9688 6.71888L22.0625 16.0001V20.0001H20.1875ZM8.9375 20.0001V16.0001L14.0312 6.71888C14.3438 6.13555 14.4896 5.52096 14.4688 4.87513C14.4479 4.2293 14.2708 3.61471 13.9375 3.03138C13.6875 2.73971 13.3698 2.58867 12.9844 2.57826C12.599 2.56784 12.2812 2.70846 12.0312 3.00013L4.78125 11.2501C4.61458 11.4585 4.47917 11.6824 4.375 11.922C4.27083 12.1616 4.20833 12.4168 4.1875 12.6876L3 27.5001H12.7812L14.25 24.9376C14.3542 24.7501 14.4323 24.5574 14.4844 24.3595C14.5365 24.1616 14.5625 23.948 14.5625 23.7189V14.3751C14.5625 13.896 14.4375 13.4637 14.1875 13.0783C13.9375 12.6928 13.6042 12.3855 13.1875 12.1564L10.8125 16.5001V20.0001H8.9375Z" fill="#57BF9C"/>
</svg>
