<svg width="25" height="24" viewBox="0 0 25 24" fill="none" xmlns="http://www.w3.org/2000/svg">
<path opacity="0.4" d="M16.5756 2.75098H19.9616C20.9437 2.75098 21.7501 3.55508 21.7501 4.56094V7.9755C21.7501 8.98136 20.9437 9.78546 19.9616 9.78546H16.5756C15.5935 9.78546 14.7871 8.98136 14.7871 7.9755V4.56094C14.7871 3.55508 15.5935 2.75098 16.5756 2.75098Z" fill="black" stroke="black" stroke-width="1.5" stroke-linecap="round" stroke-linejoin="round"/>
<path d="M8.42449 14.2155C9.40661 14.2155 10.213 15.0196 10.213 16.0255V19.44C10.213 20.4451 9.40643 21.25 8.42449 21.25H5.03852C4.05659 21.25 3.25 20.4451 3.25 19.44V16.0255C3.25 15.0196 4.0564 14.2155 5.03852 14.2155H8.42449ZM19.9615 14.2155C20.9436 14.2155 21.75 15.0196 21.75 16.0255V19.44C21.75 20.4451 20.9434 21.25 19.9615 21.25H16.5755C15.5936 21.25 14.787 20.4451 14.787 19.44V16.0255C14.787 15.0196 15.5934 14.2155 16.5755 14.2155H19.9615ZM8.42449 2.75C9.40661 2.75 10.213 3.55411 10.213 4.55996V7.97452C10.213 8.98038 9.40661 9.78449 8.42449 9.78449H5.03852C4.0564 9.78449 3.25 8.98038 3.25 7.97452V4.55996C3.25 3.55411 4.0564 2.75 5.03852 2.75H8.42449Z" fill="black" stroke="black" stroke-width="1.5" stroke-linecap="round" stroke-linejoin="round"/>
</svg>
