<svg width="25" height="24" viewBox="0 0 25 24" fill="none" xmlns="http://www.w3.org/2000/svg">
<path fill-rule="evenodd" clip-rule="evenodd" d="M12.5 2C9.73858 2 7.5 4.23858 7.5 7C7.5 9.76142 9.73858 12 12.5 12C15.2614 12 17.5 9.76142 17.5 7C17.5 4.23858 15.2614 2 12.5 2ZM9.5 7C9.5 5.34315 10.8431 4 12.5 4C14.1569 4 15.5 5.34315 15.5 7C15.5 8.65685 14.1569 10 12.5 10C10.8431 10 9.5 8.65685 9.5 7Z" fill="black"/>
<path fill-rule="evenodd" clip-rule="evenodd" d="M12.5 13.5C8.0502 13.5 5.57689 15.0054 4.43312 16.0093C3.72723 16.6288 3.5 17.4996 3.5 18.2447C3.5 20.3187 5.18132 22 7.25534 22H17.7447C19.8187 22 21.5 20.3187 21.5 18.2447C21.5 17.4996 21.2728 16.6288 20.5669 16.0093C19.4231 15.0054 16.9498 13.5 12.5 13.5ZM5.75244 17.5124C6.53934 16.8217 8.54626 15.5 12.5 15.5C16.4537 15.5 18.4607 16.8217 19.2476 17.5124C19.3856 17.6335 19.5 17.8668 19.5 18.2447C19.5 19.2141 18.7141 20 17.7447 20H7.25534C6.28589 20 5.5 19.2141 5.5 18.2447C5.5 17.8668 5.61441 17.6335 5.75244 17.5124Z" fill="black"/>
</svg>
