<svg width="22" height="22" viewBox="0 0 22 22" fill="none" xmlns="http://www.w3.org/2000/svg">
<path d="M21.1168 19.2646L17.0519 15.1984C20.0934 11.1342 19.2641 5.37405 15.1996 2.33279C11.1351 -0.708467 5.37446 0.120785 2.33295 4.18497C-0.708568 8.24915 0.120754 14.0093 4.18527 17.0505C7.45023 19.4935 11.9346 19.4935 15.1996 17.0505L19.2662 21.1168C19.7772 21.6277 20.6057 21.6277 21.1167 21.1168C21.6278 20.6058 21.6278 19.7773 21.1167 19.2663L21.1168 19.2646ZM9.72632 16.2657C6.11397 16.2657 3.18561 13.3376 3.18561 9.72555C3.18561 6.1135 6.11397 3.18538 9.72632 3.18538C13.3387 3.18538 16.267 6.1135 16.267 9.72555C16.2632 13.336 13.3371 16.2619 9.72632 16.2657Z" fill="black"/>
</svg>
