<svg width="25" height="24" viewBox="0 0 25 24" fill="none" xmlns="http://www.w3.org/2000/svg">
<path fill-rule="evenodd" clip-rule="evenodd" d="M8.5 3C5.73858 3 3.5 5.23858 3.5 8V16C3.5 18.7614 5.73858 21 8.5 21H16.5C19.2614 21 21.5 18.7614 21.5 16V8C21.5 5.23858 19.2614 3 16.5 3H8.5ZM19.5 11.0909V8C19.5 6.34315 18.1569 5 16.5 5H8.5C6.84315 5 5.5 6.34315 5.5 8V11.0909H7.51371L9.88449 7.45395C10.0974 7.12733 10.4807 6.95423 10.8665 7.0105C11.2523 7.06676 11.5703 7.34212 11.681 7.71594L13.6621 14.4021L15.1768 11.6136C15.3518 11.2915 15.689 11.0909 16.0556 11.0909H19.5ZM5.5 13.0909H8.05556C8.39357 13.0909 8.70871 12.9202 8.89329 12.637L10.3782 10.359L12.4301 17.2841C12.545 17.6719 12.8821 17.9522 13.2843 17.9945C13.6865 18.0368 14.0746 17.8327 14.2676 17.4774L16.6504 13.0909H19.5V16C19.5 17.6569 18.1569 19 16.5 19H8.5C6.84315 19 5.5 17.6569 5.5 16V13.0909Z" fill="black"/>
</svg>
