<svg width="31" height="30" viewBox="0 0 31 30" fill="none" xmlns="http://www.w3.org/2000/svg">
<path d="M4.25 7.5C3.5625 7.5 3 8.0625 3 8.75V25C3 26.375 4.125 27.5 5.5 27.5H21.75C22.4375 27.5 23 26.9375 23 26.25C23 25.5625 22.4375 25 21.75 25H6.75C6.0625 25 5.5 24.4375 5.5 23.75V8.75C5.5 8.0625 4.9375 7.5 4.25 7.5ZM25.5 2.5H10.5C9.125 2.5 8 3.625 8 5V20C8 21.375 9.125 22.5 10.5 22.5H25.5C26.875 22.5 28 21.375 28 20V5C28 3.625 26.875 2.5 25.5 2.5ZM15.5 18.125V6.875L22.3375 12C22.675 12.25 22.675 12.75 22.3375 13L15.5 18.125Z" fill="#57BF9C"/>
</svg>
